<?xml version="1.0" standalone="no"?>
<!DOCTYPE svg PUBLIC "-//W3C//DTD SVG 20010904//EN"
 "http://www.w3.org/TR/2001/REC-SVG-20010904/DTD/svg10.dtd">
<svg version="1.0" xmlns="http://www.w3.org/2000/svg"
 width="2550.000000pt" height="2550.000000pt" viewBox="0 0 2550.000000 2550.000000"
 preserveAspectRatio="xMidYMid meet">
<metadata>
Created by potrace 1.14, written by Peter Selinger 2001-2017
</metadata>
<g transform="translate(0.000000,2550.000000) scale(0.100000,-0.100000)"
fill="#000000" stroke="none">
<path d="M14088 24995 c-2 -2 -77 -6 -168 -10 -91 -3 -190 -8 -220 -10 -30 -2
-120 -6 -200 -10 -80 -3 -167 -8 -195 -10 -27 -2 -115 -7 -195 -10 -80 -3
-179 -8 -220 -10 -41 -2 -124 -7 -185 -10 -164 -8 -288 -14 -400 -20 -55 -3
-147 -7 -205 -10 -58 -3 -148 -7 -200 -10 -52 -2 -142 -7 -200 -10 -183 -9
-332 -16 -415 -20 -44 -3 -132 -7 -195 -10 -63 -3 -153 -7 -200 -10 -86 -4
-269 -14 -386 -20 -78 -4 -152 -13 -234 -30 -14 -2 -40 -7 -58 -10 -75 -12
-185 -38 -302 -70 -1033 -285 -1830 -902 -2270 -1758 -43 -84 -90 -181 -105
-217 -15 -36 -31 -74 -36 -85 -77 -176 -191 -574 -224 -782 -3 -18 -7 -48 -10
-65 -3 -18 -8 -46 -12 -63 -3 -16 -7 -41 -8 -55 -7 -64 -17 -147 -21 -170 -5
-24 -10 -1819 -19 -6395 l-4 -2220 -31 -100 c-17 -55 -40 -131 -51 -170 -11
-38 -24 -81 -29 -95 -5 -14 -22 -70 -38 -125 -17 -55 -41 -134 -53 -175 -13
-41 -24 -79 -25 -85 -1 -5 -84 -280 -184 -610 -100 -330 -195 -643 -210 -695
-16 -52 -37 -124 -48 -160 -11 -36 -32 -105 -47 -155 -14 -49 -47 -155 -71
-235 -25 -80 -47 -153 -49 -163 -2 -10 -18 -62 -34 -115 -62 -201 -141 -461
-175 -577 -19 -66 -90 -300 -156 -520 -67 -220 -139 -461 -161 -535 -22 -74
-58 -191 -79 -260 -21 -69 -44 -143 -50 -165 -25 -88 -42 -143 -140 -465 -94
-312 -142 -469 -175 -580 -7 -25 -30 -99 -50 -165 -20 -66 -38 -129 -41 -141
l-4 -21 2898 0 2897 -1 78 -31 c103 -41 207 -70 287 -78 80 -9 237 -9 305 -1
116 15 146 22 275 65 l135 45 3443 0 c1893 1 3442 4 3442 9 0 4 -25 90 -56
191 -95 313 -151 498 -189 623 -20 66 -74 244 -120 395 -46 151 -109 358 -140
460 -31 102 -70 230 -86 285 -17 55 -39 129 -50 165 -11 36 -22 72 -24 80 -2
8 -31 105 -65 215 -34 110 -99 324 -145 475 -46 151 -100 329 -120 395 -20 66
-65 215 -100 330 -68 224 -68 222 -145 475 -28 91 -53 172 -55 180 -5 23 -113
379 -129 430 -9 25 -76 248 -151 495 -75 248 -149 493 -165 545 -47 151 -179
586 -211 695 -17 55 -39 127 -49 160 -10 33 -54 179 -98 325 -45 146 -165 540
-267 875 -102 336 -188 618 -190 627 -2 9 -19 68 -39 130 -19 62 -67 219 -105
348 -39 129 -77 255 -85 280 -13 39 -56 180 -136 445 -11 39 -34 113 -50 165
-34 108 -129 424 -166 550 -14 47 -30 96 -34 110 -5 14 -45 144 -89 290 -79
264 -112 373 -198 650 -24 80 -53 174 -63 210 -41 140 -195 647 -267 880 -15
47 -28 90 -29 95 -1 6 -38 129 -83 275 -45 146 -84 272 -86 280 -4 19 -145
489 -153 510 -3 8 -6 20 -8 25 -1 6 -27 91 -57 190 -31 99 -85 277 -121 395
-36 118 -88 289 -116 380 -28 91 -53 172 -55 180 -2 8 -81 269 -175 580 -95
311 -210 691 -257 845 -46 154 -105 345 -129 425 -25 80 -47 153 -49 163 -14
61 -16 62 -46 7 -16 -29 -41 -69 -56 -89 -31 -42 -182 -191 -194 -191 -4 0
-14 -6 -21 -13 -12 -12 -66 -49 -123 -84 -43 -26 -204 -103 -276 -131 -63 -26
-258 -86 -309 -97 -8 -2 -58 -13 -110 -24 -52 -11 -135 -25 -185 -31 -83 -9
-342 -7 -425 4 -19 2 -66 7 -105 11 -135 12 -244 24 -270 29 -254 50 -729 293
-1233 633 -101 68 -185 123 -187 123 -1 0 -5 -10 -8 -22 -3 -13 -22 -77 -42
-143 -20 -66 -43 -140 -50 -165 -7 -25 -56 -189 -109 -365 -54 -176 -140 -462
-192 -635 -52 -173 -108 -358 -124 -410 -16 -52 -40 -133 -54 -180 -14 -47
-43 -143 -65 -215 -21 -71 -110 -364 -196 -650 -86 -286 -202 -668 -257 -850
-54 -181 -111 -368 -124 -415 -27 -91 -50 -168 -346 -1145 -104 -346 -196
-650 -203 -675 -7 -25 -29 -97 -48 -160 -109 -359 -238 -787 -241 -800 -4 -13
-111 -369 -150 -495 -26 -83 -70 -229 -72 -240 -1 -5 -19 -64 -39 -130 -20
-66 -47 -156 -60 -200 -13 -44 -58 -192 -99 -330 -42 -137 -76 -256 -76 -264
0 -8 -3 -12 -6 -8 -3 3 -8 934 -11 2069 -2 1135 -5 2563 -7 3173 l-2 1110 22
105 c44 210 76 325 136 500 163 468 387 831 717 1160 242 241 484 411 803 565
186 89 489 200 603 220 11 2 76 16 145 30 69 14 152 29 186 32 l61 5 7 -43 c3
-24 9 -60 12 -79 2 -19 11 -73 19 -119 8 -46 15 -87 15 -91 0 -11 135 -119
225 -181 44 -30 82 -56 85 -59 4 -5 43 -28 135 -82 192 -111 538 -258 691
-293 10 -2 53 -13 94 -24 41 -12 102 -25 135 -31 33 -6 71 -13 85 -16 14 -2
43 -7 65 -10 22 -3 51 -8 65 -10 106 -19 446 -24 655 -10 236 15 430 85 607
219 88 66 195 178 246 257 70 109 137 263 156 365 4 17 9 41 13 55 3 14 7 169
9 344 2 175 7 322 11 326 4 4 28 12 53 19 96 28 170 89 216 180 25 52 49 153
49 211 0 31 -3 34 -32 36 -18 1 -33 0 -35 -1z"/>
<path d="M5167 5882 c-3 -6 -1 -2707 2 -2742 1 -13 99 -15 834 -14 457 1 834
2 837 3 3 0 5 118 5 261 0 224 -2 261 -15 264 -8 2 -258 4 -555 4 -297 0 -548
1 -557 1 -17 1 -18 18 -18 216 l0 215 23 1 c12 0 214 1 450 1 235 0 428 3 428
7 1 3 2 120 3 259 1 246 1 253 -19 257 -11 2 -211 4 -445 4 -234 -1 -428 0
-432 0 -5 1 -8 161 -8 356 l0 355 53 1 c28 0 285 0 570 0 284 0 518 3 518 7 1
4 2 129 3 279 l1 272 -837 -1 c-461 0 -839 -3 -841 -6z"/>
<path d="M7066 5882 c-2 -4 -3 -626 -2 -1382 l1 -1375 420 1 c231 0 434 3 450
7 243 49 490 156 687 297 143 102 298 280 386 443 33 60 97 238 107 296 3 19
7 37 9 40 18 29 26 334 13 451 -24 218 -106 438 -228 610 -48 68 -175 203
-241 257 -59 48 -166 123 -176 123 -6 0 -12 4 -14 9 -10 27 -385 186 -483 205
-11 2 -38 9 -60 14 -45 12 -862 15 -869 4z m1001 -592 c253 -137 412 -303 514
-535 49 -111 62 -328 28 -470 -54 -221 -201 -409 -419 -533 -156 -89 -184 -95
-398 -94 -103 0 -192 1 -197 1 -7 1 -10 286 -10 836 l0 834 70 3 c38 2 129 2
202 2 l132 -2 78 -42z"/>
<path d="M9409 5887 c-1 -1 -2 -622 -3 -1379 -1 -915 2 -1378 9 -1379 5 -1
133 -2 283 -3 l272 -1 0 1382 0 1382 -280 0 c-154 0 -281 -1 -281 -2z"/>
<path d="M12910 4485 l0 -1360 258 0 257 0 1 823 c1 453 3 825 5 827 4 3 76
-107 139 -211 22 -36 406 -638 455 -714 86 -131 389 -606 408 -640 12 -19 29
-46 40 -60 l19 -25 239 0 239 0 0 1360 0 1360 -240 0 c-233 0 -240 -1 -240
-20 -1 -11 -1 -402 -1 -869 -1 -466 -4 -844 -9 -840 -4 5 -74 119 -155 254
-81 135 -158 261 -170 280 -13 19 -76 123 -140 230 -279 462 -521 859 -554
910 l-36 56 -257 -1 -258 0 0 -1360z"/>
<path d="M15284 5841 c-2 -2 -4 -633 -4 -1401 l0 -1397 255 0 255 -1 1 62 c0
81 0 2672 0 2711 l-1 30 -251 0 c-138 0 -252 -2 -255 -4z"/>
<path d="M15949 5835 c0 -15 -1 -536 0 -562 l1 -23 295 0 295 0 0 -1104 0
-1104 260 1 260 1 1 25 c0 14 1 511 1 1104 l1 1077 271 0 271 0 0 298 0 297
-827 0 c-546 0 -828 -3 -829 -10z"/>
<path d="M17742 5836 c-4 -7 -7 -2726 -3 -2782 1 -8 226 -11 834 -10 l832 1 2
253 c1 138 -2 253 -5 253 -4 1 -261 2 -572 3 l-565 1 -1 228 -1 227 463 0 463
0 -1 249 0 249 -453 0 c-249 0 -457 2 -462 5 -13 8 -13 806 0 814 5 3 263 5
572 5 l562 -1 -1 257 -1 257 -828 0 c-496 0 -831 -4 -835 -9z"/>
<path d="M11618 5806 c-1 -2 -44 -6 -94 -9 -603 -40 -1124 -494 -1249 -1088
-96 -457 41 -929 365 -1259 146 -148 288 -242 505 -331 29 -12 153 -48 184
-54 14 -3 37 -7 51 -10 126 -25 354 -26 495 0 322 57 644 252 839 507 31 40
61 79 67 86 8 10 11 138 11 425 0 227 -1 417 -1 423 -1 8 -209 11 -768 10
l-768 -1 -3 -206 -2 -207 552 0 c304 -1 566 -1 581 -1 l29 -1 -27 -47 c-118
-205 -307 -351 -530 -409 -73 -19 -285 -26 -355 -12 -337 69 -593 323 -665
657 -14 65 -15 278 -1 329 3 12 8 30 10 40 33 138 125 294 241 404 33 32 63
58 67 58 4 0 13 6 20 13 37 37 208 116 285 132 96 21 243 26 335 12 203 -31
412 -162 535 -334 44 -62 65 -75 80 -50 4 7 42 42 83 77 41 35 80 69 86 74 11
11 116 104 167 147 l27 24 -47 60 c-165 211 -424 393 -672 470 -82 26 -92 29
-161 41 -19 4 -44 8 -55 10 -11 2 -58 7 -105 10 -47 3 -90 7 -97 9 -6 2 -13 2
-15 1z"/>
<path d="M5167 2901 c-3 -5 -1 -206 2 -241 1 -13 799 -15 7120 -15 l7119 0 0
131 0 132 -7119 0 c-3916 -1 -7121 -3 -7122 -7z"/>
<path d="M6500 1814 l0 -584 113 0 112 0 0 165 c0 158 1 165 20 166 84 3 308
0 313 -5 3 -3 5 -78 4 -166 l-1 -160 120 0 c106 0 119 2 120 18 0 9 1 271 1
582 l1 565 -120 1 -120 1 -1 -276 c0 -152 -1 -283 -1 -291 -1 -13 -26 -15
-166 -15 -103 0 -165 4 -166 10 -1 5 -2 136 -3 290 l-1 280 -112 1 -113 1 0
-583z"/>
<path d="M7760 2376 c-187 -52 -319 -178 -381 -361 -45 -134 -35 -304 27 -425
74 -146 215 -257 374 -294 61 -14 196 -16 249 -3 202 51 349 190 413 390 27
86 27 229 -1 317 -92 291 -393 458 -681 376z m265 -211 c256 -86 305 -437 82
-589 -213 -146 -507 -5 -522 249 -14 244 210 417 440 340z"/>
<path d="M8566 2391 c-2 -3 -3 -266 -3 -583 l0 -578 108 0 c97 0 109 2 110 18
0 9 1 68 1 130 l1 112 117 0 c132 0 161 7 241 62 145 100 215 279 186 483 -7
50 -41 143 -64 175 -41 56 -124 127 -184 157 l-64 31 -223 0 c-122 0 -224 -3
-226 -7z m354 -226 c95 -6 116 -17 161 -78 98 -132 92 -239 -18 -337 l-50 -45
-115 0 -115 0 0 236 0 236 26 -3 c14 -1 64 -5 111 -9z"/>
<path d="M9409 2396 c-1 0 -2 -263 -3 -583 l-1 -583 340 0 340 0 0 108 0 107
-235 5 -234 5 -1 90 -1 91 233 -1 c128 0 233 2 234 5 7 35 3 170 -5 173 -6 2
-111 3 -233 3 -141 -1 -224 3 -226 9 -2 5 -3 87 -3 180 l1 170 230 0 c127 0
232 3 235 7 3 4 5 53 5 110 l0 103 -337 1 c-186 1 -339 1 -339 0z"/>
<path d="M10506 2392 c-3 -3 -6 -266 -6 -584 l0 -578 100 0 100 0 0 165 0 165
28 1 c15 1 77 2 137 2 l110 2 0 123 c1 67 -2 123 -5 123 -3 1 -63 2 -135 3
l-130 1 -3 181 -2 181 270 0 c148 0 270 -2 270 -4 0 -2 -14 -22 -31 -45 -124
-172 -128 -434 -10 -614 63 -97 126 -153 226 -202 84 -41 135 -53 240 -56 254
-8 495 185 550 439 68 313 -149 626 -465 672 -162 23 -340 -32 -460 -144 l-35
-33 -3 104 -3 103 -369 1 c-203 0 -371 -3 -374 -6z m1277 -252 c133 -41 229
-171 230 -309 0 -138 -68 -247 -194 -310 -54 -27 -69 -30 -142 -28 -67 2 -92
7 -139 30 -59 29 -129 93 -155 143 -36 70 -47 172 -27 244 4 14 8 27 9 30 5
20 48 90 70 113 58 61 157 106 236 107 26 0 76 -9 112 -20z"/>
<path d="M12332 1814 l-1 -584 104 0 105 0 -1 98 c-1 53 -1 112 0 130 l1 32
113 0 113 0 38 -62 c20 -35 53 -88 72 -118 l34 -55 95 0 c52 0 95 3 95 8 0 4
-36 77 -79 161 l-79 154 47 50 c99 105 135 240 106 398 -25 135 -123 264 -255
334 l-65 35 -221 1 -222 2 0 -584z m478 307 c137 -149 133 -267 -13 -384 -37
-29 -43 -30 -140 -32 -56 -1 -106 0 -112 2 -8 2 -12 400 -6 465 1 4 51 6 111
5 l111 -3 49 -53z"/>
<path d="M14643 2391 c-5 -3 -9 -52 -8 -108 0 -85 2 -103 15 -104 8 -1 59 -1
113 -1 92 0 97 -1 98 -22 0 -11 1 -225 1 -473 l0 -453 112 0 111 0 0 474 0
473 93 -1 c52 0 97 3 100 8 4 8 7 154 3 202 -1 11 -622 16 -638 5z"/>
<path d="M15332 1814 l0 -584 103 0 103 0 0 160 c0 89 2 164 6 167 5 5 234 7
383 4 21 -1 22 -3 21 -163 l-1 -163 95 -3 96 -3 -2 583 -1 583 -92 2 -93 3 -1
-48 c0 -26 -1 -150 0 -277 0 -126 -2 -237 -4 -245 -7 -23 -405 -23 -406 0 0 8
-1 139 -2 290 l-2 275 -101 1 -102 1 0 -583z"/>
<path d="M16260 1814 l0 -584 329 0 328 0 1 110 0 110 -234 0 -234 0 0 89 c0
62 4 90 13 93 6 2 92 4 190 3 97 0 178 2 178 5 1 3 2 42 3 88 1 67 -1 82 -14
83 -8 1 -94 2 -190 3 l-175 1 0 180 0 180 230 1 230 0 0 110 0 109 -327 1
-328 2 0 -584z"/>
<path d="M17000 1815 l0 -585 115 0 115 0 0 130 0 130 93 0 92 0 90 -126 c49
-70 95 -128 101 -131 6 -2 49 -3 97 -1 l86 3 -114 150 c-103 136 -113 151 -97
163 77 57 154 157 186 242 23 61 33 163 24 230 -10 63 -55 161 -95 205 -70 77
-184 142 -260 150 -124 14 -157 16 -290 20 l-143 5 0 -585z m471 306 c19 -1
95 -77 113 -113 9 -16 13 -51 12 -86 -2 -67 -26 -114 -90 -177 l-41 -41 -115
1 -115 0 -3 200 c-1 110 -1 204 2 210 3 8 157 13 237 6z"/>
<path d="M18153 2389 c-130 -25 -220 -118 -239 -249 -16 -105 -9 -181 22 -244
56 -114 195 -206 319 -210 35 -2 73 -9 85 -17 44 -29 41 -136 -4 -178 -24 -22
-82 -33 -129 -24 -34 7 -66 53 -62 88 2 26 17 25 -187 13 l-58 -3 0 -55 c0
-64 32 -141 76 -182 30 -27 122 -74 171 -86 16 -4 78 -7 138 -7 127 0 170 16
237 89 75 80 109 269 70 389 -33 103 -157 197 -282 213 -71 8 -111 27 -140 66
-19 26 -22 38 -16 85 7 64 21 88 59 107 40 19 95 5 129 -34 23 -24 27 -37 22
-65 l-5 -34 108 2 108 2 -2 52 c-2 29 -12 76 -23 105 -44 119 -131 177 -271
182 -46 2 -103 0 -126 -5z"/>
<path d="M14029 2346 c-2 -2 -22 -6 -44 -10 -200 -28 -372 -177 -440 -381 -23
-68 -28 -234 -9 -304 26 -98 74 -181 149 -256 65 -65 162 -127 220 -140 11 -2
38 -9 60 -14 22 -6 73 -11 114 -11 301 -1 548 239 556 539 2 94 -8 149 -42
231 -84 202 -268 330 -494 345 -37 2 -68 3 -70 1z m171 -233 c135 -50 222
-172 222 -314 1 -178 -138 -325 -314 -334 -343 -17 -485 422 -200 615 74 50
206 65 292 33z"/>
</g>
</svg>
